<svg width="50" height="50" viewBox="0 0 50 50" fill="none" xmlns="http://www.w3.org/2000/svg">
<rect x="50" y="50" width="50" height="50" rx="15" transform="rotate(180 50 50)" fill="#008CFF"/>
<path d="M35.8203 32.3047H33.4861C33.3268 32.3047 33.1773 32.3744 33.0777 32.4973C32.8453 32.7795 32.5963 33.0517 32.334 33.3107C31.2612 34.3846 29.9904 35.2405 28.592 35.8308C27.1432 36.4428 25.586 36.7567 24.0133 36.7539C22.4229 36.7539 20.8822 36.4418 19.4346 35.8308C18.0361 35.2405 16.7654 34.3846 15.6926 33.3107C14.6179 32.2405 13.7609 30.9719 13.1691 29.5754C12.5549 28.1277 12.2461 26.5904 12.2461 25C12.2461 23.4096 12.5582 21.8723 13.1691 20.4246C13.7602 19.0267 14.6102 17.7683 15.6926 16.6892C16.775 15.6101 18.0334 14.7601 19.4346 14.1691C20.8822 13.5582 22.4229 13.2461 24.0133 13.2461C25.6037 13.2461 27.1443 13.5549 28.592 14.1691C29.9932 14.7601 31.2516 15.6101 32.334 16.6892C32.5963 16.9516 32.842 17.2238 33.0777 17.5027C33.1773 17.6256 33.3301 17.6953 33.4861 17.6953H35.8203C36.0295 17.6953 36.159 17.4629 36.0428 17.2869C33.4961 13.3291 29.0402 10.7094 23.9768 10.7226C16.0213 10.7426 9.64297 17.2006 9.72266 25.1461C9.80235 32.9654 16.1707 39.2773 24.0133 39.2773C29.0635 39.2773 33.4994 36.6609 36.0428 32.7131C36.1557 32.5371 36.0295 32.3047 35.8203 32.3047ZM38.7721 24.7908L34.0606 21.0721C33.8846 20.9326 33.6289 21.0588 33.6289 21.2812V23.8047H23.2031C23.057 23.8047 22.9375 23.9242 22.9375 24.0703V25.9297C22.9375 26.0758 23.057 26.1953 23.2031 26.1953H33.6289V28.7187C33.6289 28.9412 33.8879 29.0674 34.0606 28.9279L38.7721 25.2092C38.8038 25.1843 38.8295 25.1526 38.8472 25.1163C38.8648 25.0801 38.874 25.0403 38.874 25C38.874 24.9597 38.8648 24.9199 38.8472 24.8836C38.8295 24.8474 38.8038 24.8157 38.7721 24.7908Z" fill="white"/>
</svg>
