<svg width="50" height="50" viewBox="0 0 50 50" fill="none" xmlns="http://www.w3.org/2000/svg">
<rect x="50" y="50" width="50" height="50" rx="15" transform="rotate(180 50 50)" fill="#008CFF"/>
<path d="M33.6484 28.7823C31.2401 28.7574 29.8969 29.0002 27.3409 30.0442L26.8448 28.8289C29.553 27.7232 31.0695 27.443 33.6616 27.4699L33.6484 28.7823ZM27.3409 27.4194C29.8969 26.376 31.2408 26.1326 33.6484 26.1575L33.6616 24.8451C31.0695 24.8182 29.5537 25.0984 26.8448 26.2041L27.3409 27.4194ZM33.6484 23.5326C31.2401 23.5077 29.8969 23.7505 27.3409 24.7945L26.8448 23.5792C29.553 22.4735 31.0695 22.1933 33.6616 22.2202L33.6484 23.5326ZM32.0145 20.2496V18.281H33.3269V20.2496H32.0145ZM29.7177 18.9372V20.9058H31.0301V18.9372H29.7177ZM27.421 21.562V19.5934H28.7334V21.562H27.421ZM16.6 28.7823C19.0083 28.7574 20.3516 29.0002 22.9075 30.0442L23.4036 28.8289C20.6955 27.7232 19.179 27.443 16.5869 27.4699L16.6 28.7823ZM22.9075 27.4194C20.3516 26.376 19.0083 26.1326 16.6 26.1575L16.5869 24.8451C19.179 24.8182 20.6948 25.0984 23.4036 26.2041L22.9075 27.4194ZM16.6 23.5326C19.0083 23.5077 20.3516 23.7505 22.9075 24.7945L23.4036 23.5792C20.6955 22.4735 19.179 22.1933 16.5869 22.2202L16.6 23.5326ZM18.234 20.2496V18.281H16.9216V20.2496H18.234ZM20.5307 18.9372V20.9058H19.2183V18.9372H20.5307ZM22.8275 21.562V19.5934H21.5151V21.562H22.8275Z" fill="white"/>
<path fill-rule="evenodd" clip-rule="evenodd" d="M36.9361 16.9581C37.2025 17.0167 37.4744 17.0795 37.7517 17.1464C37.8937 17.1808 38.0199 17.2619 38.11 17.3768C38.2001 17.4917 38.2489 17.6336 38.2485 17.7796V34.5386C38.2485 34.954 37.8659 35.2638 37.4584 35.1863C33.3814 34.4087 30.6338 34.3542 26.879 34.9238C26.7143 35.2477 26.4632 35.5196 26.1535 35.7095C25.8438 35.8995 25.4875 36 25.1242 36C24.7609 36 24.4047 35.8995 24.095 35.7095C23.7853 35.5196 23.5342 35.2477 23.3695 34.9238C19.6153 34.3542 16.8665 34.4087 12.7901 35.1863C12.6943 35.2051 12.5956 35.2024 12.5009 35.1786C12.4063 35.1548 12.3181 35.1103 12.2426 35.0485C12.1671 34.9866 12.1062 34.9088 12.0643 34.8207C12.0224 34.7325 12.0004 34.6362 12 34.5386V17.7803C11.9994 17.6342 12.0482 17.4921 12.1383 17.3771C12.2284 17.2621 12.3547 17.1808 12.4968 17.1464C12.7741 17.0795 13.046 17.0167 13.3124 16.9581V16.6562C13.3124 16.0755 13.6989 15.5446 14.2862 15.3963C18.322 14.3818 21.2605 15.4567 24.6262 17.0217C24.7902 17.0554 24.9563 17.0904 25.1242 17.1267C25.2922 17.0904 25.4585 17.0554 25.623 17.0217C28.988 15.4567 31.9265 14.3818 35.9622 15.3969C36.2418 15.4681 36.4895 15.6307 36.666 15.8589C36.8424 16.0871 36.9375 16.3677 36.9361 16.6562V16.9581ZM35.6236 32.0404V16.6647C31.9108 15.7362 29.2695 16.7533 25.7805 18.3971V33.6488L25.7824 33.6501L25.7837 33.6508L25.7896 33.6528H25.7916L25.7956 33.6514C29.0169 32.1933 31.8268 31.3659 35.5882 32.0523C35.5936 32.0533 35.5991 32.0531 35.6044 32.0519C35.6097 32.0506 35.6147 32.0483 35.619 32.045L35.6236 32.0404ZM24.4661 33.6501L24.468 33.6488V18.3971C20.979 16.754 18.3377 15.7362 14.6249 16.6647V32.0404L14.6294 32.045C14.6338 32.0485 14.6389 32.051 14.6443 32.0524C14.6498 32.0537 14.6554 32.0539 14.6609 32.0529C18.421 31.3659 21.2316 32.1933 24.4529 33.6508L24.4582 33.6528L24.4661 33.6501Z" fill="white"/>
</svg>
