<svg width="50" height="50" viewBox="0 0 50 50" fill="none" xmlns="http://www.w3.org/2000/svg">
<path d="M35.9778 38L26.8778 28.9C26.1556 29.4778 25.325 29.9352 24.3861 30.2722C23.4472 30.6093 22.4481 30.7778 21.3889 30.7778C18.7648 30.7778 16.5442 29.8687 14.7271 28.0507C12.91 26.2326 12.001 24.012 12 21.3889C11.999 18.7658 12.9081 16.5452 14.7271 14.7271C16.5461 12.909 18.7667 12 21.3889 12C24.011 12 26.2321 12.909 28.0521 14.7271C29.8721 16.5452 30.7807 18.7658 30.7778 21.3889C30.7778 22.4481 30.6093 23.4472 30.2722 24.3861C29.9352 25.325 29.4778 26.1556 28.9 26.8778L38 35.9778L35.9778 38ZM21.3889 27.8889C23.1944 27.8889 24.7294 27.2572 25.9938 25.9938C27.2581 24.7304 27.8899 23.1954 27.8889 21.3889C27.8879 19.5824 27.2562 18.0479 25.9938 16.7854C24.7313 15.523 23.1964 14.8908 21.3889 14.8889C19.5814 14.887 18.0469 15.5191 16.7854 16.7854C15.524 18.0517 14.8918 19.5862 14.8889 21.3889C14.886 23.1916 15.5182 24.7265 16.7854 25.9938C18.0527 27.261 19.5872 27.8927 21.3889 27.8889Z" fill="white"/>
</svg>
