<svg width="50" height="50" viewBox="0 0 50 50" fill="none" xmlns="http://www.w3.org/2000/svg">
<rect x="50" y="50" width="50" height="50" rx="15" transform="rotate(180 50 50)" fill="#008CFF"/>
<path d="M23.1598 40C22.7481 40 22.3913 39.8728 22.0893 39.6183C21.7861 39.3639 21.598 39.0467 21.5248 38.6667L21.0595 35.18C20.4944 35.0189 19.8834 34.7667 19.2264 34.4233C18.5705 34.0789 18.0119 33.71 17.5507 33.3167L14.1623 34.69C13.7883 34.8456 13.4085 34.8622 13.0227 34.74C12.637 34.6178 12.3397 34.3872 12.131 34.0483L10.2217 30.95C10.0129 30.6111 9.9516 30.2567 10.0377 29.8867C10.1238 29.5167 10.3291 29.2133 10.6535 28.9767L13.612 26.8933C13.5589 26.5911 13.5158 26.2806 13.4828 25.9617C13.4474 25.6417 13.4297 25.3311 13.4297 25.03C13.4297 24.75 13.4474 24.4556 13.4828 24.1467C13.5158 23.8378 13.5589 23.49 13.612 23.1033L10.6535 21.02C10.3291 20.7833 10.1297 20.475 10.0554 20.095C9.9811 19.715 10.0477 19.355 10.2554 19.015L12.131 16.015C12.3397 15.6961 12.637 15.4706 13.0227 15.3383C13.4085 15.2061 13.7883 15.2178 14.1623 15.3733L17.5171 16.7133C18.0456 16.2989 18.6177 15.925 19.2334 15.5917C19.8468 15.2583 20.4443 15.0006 21.0259 14.8183L21.5266 11.3317C21.5986 10.9517 21.7861 10.6345 22.0893 10.38C22.3925 10.1256 22.7493 9.9989 23.1598 10H26.8402C27.2519 10 27.6087 10.1272 27.9107 10.3817C28.2139 10.6361 28.402 10.9533 28.4752 11.3333L28.9405 14.8533C29.6188 15.0778 30.218 15.335 30.7383 15.625C31.2585 15.915 31.7946 16.2783 32.3467 16.715L35.8714 15.375C36.2465 15.2194 36.6269 15.2078 37.0126 15.34C37.3984 15.4722 37.6951 15.6978 37.9027 16.0167L39.7783 19.0483C39.9871 19.3883 40.0484 19.7428 39.9623 20.1117C39.8762 20.4806 39.6709 20.7844 39.3465 21.0233L36.2536 23.2C36.3503 23.5444 36.4046 23.8606 36.4163 24.1483C36.4281 24.4361 36.434 24.7194 36.434 24.9983C36.434 25.2572 36.4222 25.53 36.3987 25.8167C36.3762 26.1044 36.3243 26.4522 36.2429 26.86L39.2333 28.9767C39.5577 29.2133 39.7688 29.5167 39.8667 29.8867C39.9646 30.2567 39.9092 30.6111 39.7004 30.95L37.8142 34.015C37.6066 34.355 37.304 34.5856 36.9065 34.7067C36.5089 34.8289 36.1232 34.8122 35.7493 34.6567L32.3467 33.2833C31.7958 33.72 31.2414 34.0939 30.6834 34.405C30.1254 34.7161 29.5445 34.9633 28.9405 35.1467L28.4734 38.665C28.4014 39.045 28.2139 39.3622 27.9107 39.6167C27.6075 39.8711 27.2507 39.9989 26.8402 40H23.1598ZM24.9522 29.1667C26.1861 29.1667 27.2318 28.7628 28.0894 27.955C28.947 27.1472 29.3758 26.1622 29.3758 25C29.3758 23.8378 28.947 22.8528 28.0894 22.045C27.2318 21.2372 26.1861 20.8333 24.9522 20.8333C23.7113 20.8333 22.6638 21.2372 21.8097 22.045C20.9557 22.8528 20.5287 23.8378 20.5287 25C20.5287 26.1622 20.9557 27.1472 21.8097 27.955C22.6638 28.7628 23.7113 29.1667 24.9522 29.1667Z" fill="white"/>
</svg>
